<svg width="458" height="192" viewBox="0 0 458 192" fill="none" xmlns="http://www.w3.org/2000/svg">
<path d="M405.443 187.2V187.7H405.943H440.824H441.324V187.2V159.327H457.001H457.501V158.827V126.653V126.153H457.001H441.324V81.0533V80.5533H440.824H405.943H405.443V81.0533V126.153H367.047L424.089 5.01299L424.424 4.29999H423.636H384.205H383.888L383.753 4.58698L326.376 126.44L326.328 126.541V126.653V158.827V159.327H326.828H405.443V187.2Z" stroke="black"/>
<path d="M193.421 182.95C203.618 188.656 215.5 191.5 229.052 191.5C242.604 191.5 254.487 188.656 264.683 182.95C274.875 177.247 282.819 169.284 288.509 159.07C294.202 148.851 297.04 136.942 297.04 123.36V68.64C297.04 55.0578 294.202 43.1492 288.509 32.93C282.819 22.7158 274.875 14.7534 264.683 9.05032C254.487 3.34442 242.604 0.5 229.052 0.5C215.5 0.5 203.618 3.34442 193.421 9.05032C183.23 14.7534 175.285 22.7158 169.595 32.93C163.902 43.1492 161.064 55.0578 161.064 68.64V123.36C161.064 136.942 163.902 148.851 169.595 159.07C175.285 169.284 183.23 177.247 193.421 182.95ZM245.228 153.582C240.424 156.405 235.036 157.82 229.052 157.82C223.068 157.82 217.68 156.405 212.876 153.582C208.063 150.754 204.249 146.932 201.427 142.108C198.61 137.292 197.198 131.891 197.198 125.893V65.8533C197.198 59.8555 198.61 54.4548 201.427 49.6391C204.249 44.8151 208.063 40.9922 212.876 38.1644C217.68 35.3416 223.068 33.9267 229.052 33.9267C235.036 33.9267 240.424 35.3416 245.228 38.1644C250.041 40.9922 253.856 44.8151 256.677 49.6391C259.494 54.4548 260.906 59.8555 260.906 65.8533V125.893C260.906 131.891 259.494 137.292 256.677 142.108C253.856 146.932 250.041 150.754 245.228 153.582Z" stroke="black"/>
<path d="M79.6148 187.2V187.7H80.1148H114.996H115.496V187.2V159.327H131.173H131.673V158.827V126.653V126.153H131.173H115.496V81.0533V80.5533H114.996H80.1148H79.6148V81.0533V126.153H41.2191L98.2606 5.01299L98.5963 4.29999H97.8082H58.3772H58.06L57.9248 4.58698L0.54764 126.44L0.5 126.541V126.653V158.827V159.327H1H79.6148V187.2Z" stroke="black"/>
</svg>
