<svg width="23" height="20" viewBox="0 0 23 20" fill="none" xmlns="http://www.w3.org/2000/svg">
<path d="M19.462 19.7562L18.1155 15.0431C18.0776 14.9103 18.0798 14.7692 18.1218 14.6376C18.1638 14.5061 18.2437 14.3898 18.3516 14.3035L21.5042 11.7811L20.5553 7.98373L18.6364 10.3829C18.5705 10.4649 18.4871 10.5311 18.3923 10.5766C18.2975 10.6221 18.1937 10.6458 18.0885 10.6458H14.5845V9.24419H17.7521L20.3446 6.00313C20.4262 5.90117 20.5346 5.82405 20.6577 5.78044C20.7808 5.73684 20.9136 5.72851 21.0412 5.75637C21.1688 5.78423 21.2861 5.84719 21.3798 5.93814C21.4735 6.0291 21.5399 6.14442 21.5716 6.27112L22.9732 11.8775C23.0059 12.0076 23.0005 12.1444 22.9576 12.2715C22.9148 12.3986 22.8364 12.5108 22.7316 12.5946L19.592 15.1066L20.8107 19.3712L19.462 19.7562ZM16.6869 2.58659C16.6869 2.10147 16.8307 1.62725 17.1002 1.22389C17.3698 0.820527 17.7528 0.506145 18.201 0.320498C18.6492 0.134852 19.1424 0.0862782 19.6182 0.18092C20.094 0.275562 20.531 0.509168 20.8741 0.852199C21.2171 1.19523 21.4507 1.63228 21.5453 2.10807C21.64 2.58387 21.5914 3.07705 21.4058 3.52524C21.2201 3.97343 20.9057 4.3565 20.5024 4.62602C20.099 4.89554 19.6248 5.03939 19.1397 5.03939C18.4894 5.03861 17.866 4.77994 17.4061 4.32012C16.9463 3.8603 16.6877 3.23687 16.6869 2.58659ZM18.0885 2.58659C18.0885 2.7945 18.1501 2.99774 18.2656 3.17061C18.3811 3.34347 18.5453 3.47821 18.7374 3.55777C18.9295 3.63734 19.1408 3.65815 19.3448 3.61759C19.5487 3.57703 19.736 3.47691 19.883 3.3299C20.03 3.18289 20.1301 2.99558 20.1707 2.79167C20.2112 2.58776 20.1904 2.3764 20.1109 2.18431C20.0313 1.99223 19.8966 1.82806 19.7237 1.71255C19.5508 1.59704 19.3476 1.53539 19.1397 1.53539C18.861 1.53571 18.5938 1.64656 18.3967 1.84363C18.1996 2.0407 18.0888 2.30789 18.0885 2.58659Z" fill="#F8F9FA"/>
<path d="M14.5871 12.0474C14.4027 12.0474 14.2201 12.0111 14.0497 11.9405C13.8794 11.87 13.7245 11.7665 13.5941 11.6361C13.4637 11.5057 13.3603 11.3509 13.2897 11.1805C13.2191 11.0101 13.1828 10.8275 13.1828 10.6431V9.24697C13.1828 9.06255 13.2191 8.87993 13.2897 8.70955C13.3603 8.53917 13.4637 8.38436 13.5941 8.25395C13.7245 8.12355 13.8794 8.02011 14.0497 7.94953C14.2201 7.87896 14.4027 7.84263 14.5871 7.84263H15.986V5.74023H7.57642V7.84263H8.97528C9.34774 7.84263 9.70493 7.99059 9.9683 8.25395C10.2317 8.51732 10.3796 8.87451 10.3796 9.24697V10.6431C10.3796 10.8275 10.3433 11.0101 10.2727 11.1805C10.2021 11.3509 10.0987 11.5057 9.9683 11.6361C9.83789 11.7665 9.68308 11.87 9.5127 11.9405C9.34232 12.0111 9.1597 12.0474 8.97528 12.0474H7.57642V14.1498H15.986V12.0474H14.5871Z" fill="#F8F9FA"/>
<path d="M4.10048 19.7562L5.44707 15.0431C5.48488 14.9103 5.48265 14.7692 5.44065 14.6376C5.39865 14.506 5.31875 14.3898 5.21097 14.3034L2.05835 11.7811L3.00758 7.9838L4.92651 10.3829C4.9923 10.4649 5.07565 10.5311 5.17041 10.5766C5.26517 10.6221 5.36893 10.6457 5.47405 10.6458H8.97805V9.24419H5.81078L3.21831 6.00313C3.13671 5.90117 3.02825 5.82405 2.90515 5.78044C2.78205 5.73684 2.64922 5.72851 2.52164 5.75637C2.39406 5.78423 2.2768 5.84719 2.18309 5.93814C2.08938 6.0291 2.02295 6.14442 1.99128 6.27112L0.589682 11.8775C0.557012 12.0076 0.562411 12.1444 0.605237 12.2715C0.648063 12.3986 0.726512 12.5108 0.831248 12.5946L3.97118 15.1065L2.75249 19.3712L4.10048 19.7562ZM4.42285 5.03939C3.93773 5.03939 3.46351 4.89554 3.06015 4.62602C2.65678 4.3565 2.3424 3.97343 2.15676 3.52524C1.97111 3.07705 1.92254 2.58387 2.01718 2.10807C2.11182 1.63228 2.34543 1.19523 2.68846 0.852199C3.03149 0.509168 3.46853 0.275562 3.94433 0.18092C4.42013 0.0862782 4.9133 0.134852 5.36149 0.320498C5.80969 0.506145 6.19276 0.820527 6.46228 1.22389C6.73179 1.62725 6.87565 2.10147 6.87565 2.58659C6.87487 3.23687 6.6162 3.8603 6.15638 4.32012C5.69656 4.77994 5.07313 5.03861 4.42285 5.03939ZM4.42285 1.53539C4.21494 1.53539 4.0117 1.59704 3.83883 1.71255C3.66596 1.82806 3.53123 1.99223 3.45167 2.18431C3.3721 2.3764 3.35129 2.58776 3.39185 2.79167C3.43241 2.99558 3.53252 3.18289 3.67954 3.3299C3.82655 3.47691 4.01386 3.57703 4.21777 3.61759C4.42168 3.65815 4.63304 3.63734 4.82513 3.55777C5.01721 3.47821 5.18138 3.34347 5.29689 3.17061C5.4124 2.99774 5.47405 2.7945 5.47405 2.58659C5.47373 2.30789 5.36288 2.0407 5.16581 1.84363C4.96874 1.64656 4.70155 1.53571 4.42285 1.53539Z" fill="#F8F9FA"/>
</svg>
