<svg width="167" height="424" viewBox="0 0 167 424" fill="none" xmlns="http://www.w3.org/2000/svg">
<path d="M91.5061 350.551L89.6484 352.409L2.33736 384.686L2.33736 348.461L73.1615 324.544L74.3225 322.918L164.885 289.48V325.937L91.5061 350.551ZM164.885 423.465C150.023 417.892 135.936 408.449 122.622 395.135C109.154 381.822 96.3051 365.954 84.0754 347.532L90.8095 344.746C97.9306 352.951 106.522 359.994 116.585 365.877C126.647 371.76 138.8 376.713 153.042 380.738C156.602 381.822 159.544 383.835 161.866 386.776C164.188 389.562 165.349 392.891 165.349 396.761L164.885 423.465ZM75.0192 327.795C67.898 319.899 59.3837 313.165 49.476 307.592C39.5684 301.864 27.7257 297.065 13.9479 293.195C9.76808 291.957 6.67195 290.099 4.65946 287.622C2.64698 284.99 1.71814 281.507 1.87294 277.173L2.10515 250.468C16.8118 255.887 30.8218 265.175 44.1352 278.334C57.4486 291.492 70.0653 307.205 81.9855 325.472L75.0192 327.795Z" fill="#FEFEFE"/>
<path d="M60.1577 254.771C23.0041 255.235 0.479684 232.014 0.479684 195.789C0.479684 161.19 20.682 137.504 51.5659 137.504C73.6259 137.504 90.8095 150.276 103.813 176.283L116.817 202.059C120.997 209.954 127.034 219.475 134.697 219.475V137.969H164.885V254.074L139.109 254.306C113.798 254.306 97.0791 232.711 89.6484 217.617L76.4124 191.145C70.8394 179.302 62.4798 172.568 51.5659 172.568C37.8655 172.568 28.8093 181.16 28.8093 195.789C28.8093 211.812 41.5809 220.171 60.1577 219.707V254.771ZM166.742 72.8502C166.742 104.895 144.914 129.742 116.353 131.135V98.1611C129.124 96.3034 136.555 87.2472 136.555 73.0824C136.555 56.5954 126.338 45.9138 110.547 45.9138C94.5248 45.9138 83.8432 56.5954 83.8432 72.8502C83.8432 84.9251 88.0229 92.8202 96.3825 97.6967V128.348L2.33736 114.648L2.33736 21.7639H32.2925V88.8727L63.8731 93.7491C59.2289 88.176 55.0491 79.1198 55.0491 65.6516C55.0491 34.3033 79.1989 10.85 110.547 10.85C143.057 10.85 166.742 37.5542 166.742 72.8502Z" fill="#FEFEFE"/>
</svg>
