<svg width="35" height="35" viewBox="0 0 35 35" fill="none" xmlns="http://www.w3.org/2000/svg">
<path d="M20.819 13.5198L20.819 13.5198C20.7609 13.5587 20.7156 13.6139 20.6889 13.6783C20.6622 13.7428 20.6552 13.8138 20.6688 13.8824L20.819 13.5198ZM20.819 13.5198C20.8771 13.481 20.9453 13.4603 21.0152 13.4603C21.1088 13.4603 21.1986 13.4975 21.2649 13.5638C21.3311 13.63 21.3683 13.7198 21.3683 13.8135C21.3683 13.8833 21.3476 13.9515 21.3088 14.0096L21.3088 14.0096C21.2699 14.0678 21.2148 14.113 21.1503 14.1397L21.1502 14.1397M20.819 13.5198L21.1502 14.1397M21.1502 14.1397C21.0858 14.1664 21.0148 14.1734 20.9462 14.1598L21.1502 14.1397ZM17.2207 14.4628L17.2197 14.4628C16.5975 14.464 15.9897 14.6496 15.473 14.9961C14.9562 15.3427 14.5538 15.8346 14.3166 16.4098L14.3166 16.4098C14.0793 16.9849 14.0178 17.6175 14.14 18.2276L14.14 18.2276C14.2621 18.8377 14.5623 19.3978 15.0027 19.8373L15.0027 19.8374C15.4431 20.2769 16.0038 20.576 16.6141 20.6969L16.6142 20.6969C17.2244 20.8179 17.8569 20.7552 18.4316 20.5168C19.0063 20.2785 19.4975 19.875 19.843 19.3577C20.1885 18.8402 20.373 18.232 20.373 17.6099V17.6089C20.3738 17.195 20.2928 16.785 20.1345 16.4026L20.1345 16.4025C19.9764 16.0201 19.7441 15.6727 19.4512 15.3803L17.2207 14.4628ZM17.2207 14.4628C17.6346 14.4611 18.0447 14.5414 18.4275 14.6988C18.8103 14.8563 19.1582 15.0878 19.4511 15.3802L17.2207 14.4628ZM23.7856 14.6925L23.7858 14.7008L23.7863 14.7091C23.828 15.446 23.8281 15.6731 23.8281 17.6099C23.8281 18.5725 23.8175 19.1119 23.807 19.5035C23.8046 19.5925 23.8022 19.6747 23.7998 19.7532C23.7921 20.0167 23.7856 20.2383 23.7855 20.5329C23.7724 21.0654 23.6725 21.5921 23.4897 22.0925C23.3367 22.4977 23.0963 22.8643 22.7854 23.1662L22.7797 23.1717L22.7742 23.1774C22.4747 23.4873 22.1089 23.7251 21.7041 23.8727L21.7041 23.8727L21.6986 23.8747C21.1992 24.0635 20.6712 24.1656 20.1375 24.1767L20.1285 24.1769L20.1196 24.1774C19.3827 24.2191 19.1555 24.2192 17.2188 24.2192C15.282 24.2192 15.0548 24.2191 14.3179 24.1774L14.309 24.1769L14.3 24.1767C13.7663 24.1656 13.2383 24.0635 12.7389 23.8747L12.7352 23.8734C12.33 23.7238 11.9633 23.4856 11.662 23.1761L11.6567 23.1706L11.6512 23.1653C11.3413 22.8659 11.1035 22.5 10.9559 22.0952L10.9559 22.0952L10.9539 22.0897C10.7651 21.5903 10.663 21.0623 10.6519 20.5286L10.6517 20.5196L10.6512 20.5107C10.6095 19.7738 10.6094 19.5467 10.6094 17.6099C10.6094 15.6731 10.6095 15.446 10.6512 14.7091L10.6517 14.7001L10.6519 14.6912C10.663 14.1574 10.7651 13.6294 10.9539 13.13L10.9539 13.13L10.9559 13.1245C11.1035 12.7197 11.3413 12.3538 11.6511 12.0545L11.6567 12.0491L11.662 12.0436C11.9633 11.7341 12.33 11.4959 12.7352 11.3464L12.7352 11.3464L12.7389 11.345C13.2383 11.1562 13.7663 11.0541 14.3 11.043L14.309 11.0429L14.3179 11.0423C15.0548 11.0006 15.282 11.0005 17.2188 11.0005C19.1555 11.0005 19.3827 11.0006 20.1196 11.0423L20.1285 11.0429L20.1375 11.043C20.6712 11.0541 21.1992 11.1562 21.6986 11.345L21.6986 11.345L21.7041 11.347C22.1089 11.4946 22.4748 11.7324 22.7742 12.0423L22.774 12.0424L22.784 12.0522C23.0941 12.3558 23.335 12.7229 23.4901 13.1282C23.6733 13.63 23.7731 14.1584 23.7856 14.6925ZM23.2334 21.9482L23.2337 21.9475C23.4068 21.4735 23.4987 20.9737 23.5056 20.4693C23.5414 19.752 23.5484 19.4729 23.5484 17.6099C23.5484 15.7484 23.5414 15.4682 23.5057 14.7523C23.5022 14.2376 23.4102 13.7274 23.2338 13.2439L23.2312 13.237L23.2285 13.2303C23.0855 12.8713 22.8665 12.5476 22.5865 12.2814C22.3021 11.9759 21.9502 11.7411 21.5588 11.5958L21.5564 11.5949C21.0832 11.4221 20.5843 11.3302 20.0807 11.323C19.3635 11.2802 19.0769 11.2802 17.2408 11.2802H17.2188C16.2795 11.2802 15.7417 11.2909 15.3486 11.3017C15.2534 11.3043 15.1677 11.3069 15.0877 11.3093C14.8349 11.3169 14.638 11.3228 14.375 11.3228L14.3711 11.3228C13.8539 11.3269 13.341 11.4187 12.8545 11.5942L12.8394 11.5997L12.8247 11.6061C12.4683 11.7612 12.1492 11.9905 11.8886 12.2786C11.5982 12.5397 11.3695 12.8622 11.2191 13.2229L11.2154 13.2316L11.2121 13.2404C11.0318 13.7232 10.937 14.2337 10.9318 14.749C10.8891 15.4655 10.8891 15.7526 10.8891 17.5878V17.6099C10.8891 18.5491 10.8998 19.0869 10.9106 19.48C10.9132 19.5752 10.9158 19.6609 10.9182 19.741C10.9258 19.9937 10.9317 20.1906 10.9317 20.4536V20.4614L10.932 20.4693C10.9482 20.9882 11.0554 21.5003 11.2486 21.9821C11.3838 22.3573 11.6026 22.6969 11.8883 22.9753C12.156 23.2512 12.4774 23.4696 12.8326 23.617L12.8483 23.6235L12.8643 23.6289C13.3564 23.795 13.8732 23.8762 14.3926 23.8687C15.1045 23.9111 15.3953 23.9111 17.2251 23.9111H17.2472C19.1102 23.9111 19.3894 23.9041 20.1066 23.8683C20.6111 23.8614 21.1108 23.7695 21.5848 23.5964L21.5848 23.5964L21.5899 23.5945C21.9636 23.4534 22.3023 23.2331 22.5828 22.9488C22.8722 22.6685 23.0946 22.3265 23.2334 21.9482ZM15.6257 19.994L15.6257 19.9941C16.0972 20.3091 16.6516 20.4773 17.2188 20.4773C17.5953 20.4773 17.9682 20.4031 18.316 20.259C18.664 20.1149 18.9801 19.9037 19.2463 19.6374C19.5126 19.3712 19.7238 19.0551 19.8679 18.7072C20.012 18.3593 20.0862 17.9864 20.0862 17.6099C20.0862 17.0427 19.918 16.4884 19.6029 16.0168L19.6029 16.0168C19.2878 15.5453 18.84 15.1777 18.3161 14.9607C17.7921 14.7437 17.2156 14.6869 16.6593 14.7975C16.1031 14.9082 15.5922 15.1813 15.1912 15.5823C14.7902 15.9833 14.5171 16.4942 14.4064 17.0505C14.2958 17.6067 14.3526 18.1832 14.5696 18.7072C14.7866 19.2311 15.1541 19.679 15.6257 19.994Z" stroke="white"/>
</svg>
