<svg width="14" height="14" viewBox="0 0 14 14" fill="none" xmlns="http://www.w3.org/2000/svg">
<path fill-rule="evenodd" clip-rule="evenodd" d="M6.38893 1.42133C5.9778 1.14662 5.49445 1 5 1C4.33696 1 3.70108 1.26339 3.23223 1.73223C2.76339 2.20107 2.5 2.83696 2.5 3.5C2.5 3.99445 2.64662 4.4778 2.92133 4.88893C3.19603 5.30005 3.58648 5.62048 4.04329 5.8097C4.50011 5.99892 5.00277 6.04843 5.48773 5.95196C5.97268 5.8555 6.41814 5.6174 6.76777 5.26777C7.1174 4.91814 7.3555 4.47268 7.45197 3.98773C7.54843 3.50277 7.49892 3.00011 7.3097 2.54329C7.12048 2.08648 6.80005 1.69603 6.38893 1.42133ZM3.05551 0.589856C3.63108 0.205271 4.30777 0 5 0C5.92826 0 6.8185 0.368749 7.47487 1.02513C8.13125 1.6815 8.5 2.57174 8.5 3.5C8.5 4.19223 8.29473 4.86892 7.91014 5.4445C7.52556 6.02007 6.97894 6.46867 6.33939 6.73358C5.69985 6.99848 4.99612 7.0678 4.31719 6.93275C3.63825 6.7977 3.01461 6.46436 2.52513 5.97487C2.03564 5.48539 1.7023 4.86175 1.56725 4.18282C1.4322 3.50388 1.50152 2.80015 1.76642 2.16061C2.03133 1.52107 2.47993 0.974441 3.05551 0.589856ZM12.85 7.6426L13.7073 8.5C13.8004 8.59267 13.8742 8.70287 13.9244 8.82423C13.9747 8.94559 14.0003 9.0757 14 9.20705V14H0V11.5C0.0010587 10.5721 0.370148 9.68244 1.0263 9.0263C1.68244 8.37015 2.57207 8.00106 3.5 8H6.5C7.42794 8.00103 8.31758 8.37011 8.97373 9.02627C9.62989 9.68242 9.99897 10.5721 10 11.5V13H13V9.20705L12.1432 8.35C11.9428 8.44765 11.7229 8.49892 11.5 8.5C11.2033 8.5 10.9133 8.41203 10.6666 8.24721C10.42 8.08238 10.2277 7.84811 10.1142 7.57403C10.0006 7.29994 9.97094 6.99834 10.0288 6.70737C10.0867 6.41639 10.2296 6.14912 10.4393 5.93934C10.6491 5.72956 10.9164 5.5867 11.2074 5.52882C11.4983 5.47094 11.7999 5.50065 12.074 5.61418C12.3481 5.72771 12.5824 5.91997 12.7472 6.16665C12.912 6.41332 13 6.70333 13 7C12.9988 7.22274 12.9476 7.44236 12.85 7.6426ZM1.73311 9.73311C1.26444 10.2018 1.00079 10.8372 1 11.5V13H9V11.5C8.99922 10.8372 8.73558 10.2018 8.2669 9.7331C7.79823 9.26442 7.1628 9.00078 6.5 9H3.5C2.8372 9.00079 2.20178 9.26444 1.73311 9.73311Z" fill="black"/>
</svg>
