<svg width="35" height="35" viewBox="0 0 35 35" fill="none" xmlns="http://www.w3.org/2000/svg">
<path d="M16.4256 19.5451L12.4611 23.9998H11.5172L16.1066 18.8415L16.3832 18.5306L16.1278 18.2022L11.1316 11.7776H14.5698L17.6694 15.8074L18.0378 16.2863L18.4393 15.8349L22.0487 11.7776H22.9911L18.7485 16.546L18.4735 16.8552L18.7258 17.1832L23.969 23.9998H20.6388L17.1938 19.5705L16.825 19.0963L16.4256 19.5451ZM20.6291 23.4642L20.7792 23.6572H21.0238H22.2877H23.303L22.684 22.8524L14.5256 12.2448L14.3755 12.0496H14.1293H12.773H11.7506L12.3783 12.8566L20.6291 23.4642Z" fill="white" stroke="white"/>
</svg>
