<svg width="23" height="16" viewBox="0 0 23 16" fill="none" xmlns="http://www.w3.org/2000/svg">
<path d="M15.0546 15.7312H1.81799C1.40498 15.7312 1.00889 15.5671 0.716849 15.275C0.424809 14.983 0.260742 14.5869 0.260742 14.1739V1.71594C0.260742 1.30293 0.424809 0.906839 0.716849 0.614798C1.00889 0.322758 1.40498 0.158691 1.81799 0.158691H15.0546C15.4676 0.158691 15.8637 0.322758 16.1557 0.614798C16.4478 0.906839 16.6118 1.30293 16.6118 1.71594V4.87715L20.832 1.86388C20.9482 1.78113 21.0849 1.73191 21.2272 1.72157C21.3695 1.71124 21.5118 1.74019 21.6388 1.80527C21.7657 1.87035 21.8724 1.96906 21.947 2.09062C22.0217 2.21217 22.0615 2.35191 22.0622 2.49456V13.3953C22.0615 13.5379 22.0217 13.6777 21.947 13.7992C21.8724 13.9208 21.7657 14.0195 21.6388 14.0846C21.5118 14.1497 21.3695 14.1786 21.2272 14.1683C21.0849 14.1579 20.9482 14.1087 20.832 14.026L16.6118 11.0127V14.1739C16.6118 14.5869 16.4478 14.983 16.1557 15.275C15.8637 15.5671 15.4676 15.7312 15.0546 15.7312ZM1.81799 1.71594V14.1739H15.0546V9.50217C15.0552 9.35951 15.0951 9.21978 15.1697 9.09822C15.2444 8.97667 15.351 8.87796 15.478 8.81288C15.6049 8.7478 15.7473 8.71885 15.8896 8.72918C16.0319 8.73952 16.1686 8.78874 16.2848 8.87149L20.5049 11.8848V4.00509L16.2848 7.01836C16.1686 7.10111 16.0319 7.15033 15.8896 7.16067C15.7473 7.171 15.6049 7.14205 15.478 7.07697C15.351 7.01189 15.2444 6.91318 15.1697 6.79162C15.0951 6.67007 15.0552 6.53033 15.0546 6.38768V1.71594H1.81799Z" fill="#F4F5F7"/>
</svg>
