<svg width="14" height="12" viewBox="0 0 14 12" fill="none" xmlns="http://www.w3.org/2000/svg">
<path fill-rule="evenodd" clip-rule="evenodd" d="M1 0.5H13C13.2651 0.500265 13.5193 0.605707 13.7068 0.793186C13.8943 0.980665 13.9997 1.23486 14 1.5V10.5C13.9997 10.7651 13.8943 11.0193 13.7068 11.2068C13.5193 11.3943 13.2651 11.4997 13 11.5H1C0.734865 11.4997 0.480665 11.3943 0.293186 11.2068C0.105707 11.0193 0.000264764 10.7651 0 10.5V1.5C0.000264764 1.23486 0.105707 0.980665 0.293186 0.793186C0.480665 0.605707 0.734865 0.500265 1 0.5ZM6.5 1.5H1V10.5H6.5V1.5ZM7.5 1.5V10.5H13V1.5H7.5ZM5.5 3H2V4H5.5V3ZM12 3H8.5V4H12V3ZM12 5.5H8.5V6.5H12V5.5ZM8.5 8H12V9H8.5V8ZM2 5.5H5.5V6.5H2V5.5ZM5.5 8H2V9H5.5V8Z" fill="white"/>
</svg>
